<?xml version="1.0" encoding="UTF-8"?>
<svg width="1024px" height="1024px" viewBox="0 0 1024 1024" version="1.1" xmlns="http://www.w3.org/2000/svg" xmlns:xlink="http://www.w3.org/1999/xlink">
    <title>Untitled-1 01 Artboard 1</title>
    <defs>
        <linearGradient x1="50%" y1="-28.0849993%" x2="-8.8817842e-14%" y2="138.358099%" id="linearGradient-1">
            <stop stop-color="#14557B" offset="0%"></stop>
            <stop stop-color="#7FCEC5" offset="100%"></stop>
        </linearGradient>
        <linearGradient x1="50%" y1="-52.0517039%" x2="-8.8817842e-14%" y2="165.477936%" id="linearGradient-2">
            <stop stop-color="#14557B" offset="0%"></stop>
            <stop stop-color="#7FCEC5" offset="100%"></stop>
        </linearGradient>
        <linearGradient x1="50%" y1="-53.6647617%" x2="-8.8817842e-14%" y2="167.303213%" id="linearGradient-3">
            <stop stop-color="#14557B" offset="0%"></stop>
            <stop stop-color="#7FCEC5" offset="100%"></stop>
        </linearGradient>
    </defs>
    <g id="Page-1" stroke="none" stroke-width="1" fill="none" fill-rule="evenodd">
        <g id="Untitled-1-01-Artboard-1">
            <rect id="Rectangle" stroke="#979797" fill-opacity="0" fill="#FFFFFF" x="0.5" y="0.5" width="1023" height="1023"></rect>
            <g id="Group-2" transform="translate(62.000000, 61.000000)">
                <g id="Layer_1" fill-rule="nonzero">
                    <g id="Group-3" transform="translate(0.000000, 0.103942)">
                        <path d="M595.796715,275.07575 L676.654027,344.231551 L484.363108,568.42575 L484.37567,568.436127 L415.122633,649.179909 L415.110108,649.16975 L415.095037,649.189473 L334.237725,580.033673 L334.253108,580.01375 L223.337108,485.149209 L292.590145,404.405426 L403.506108,499.26975 L595.796715,275.07575 Z" id="Combined-Shape" fill="url(#linearGradient-1)"></path>
                        <path d="M809.323242,179.565153 L809.323242,248.371235 L809.323242,274.679958 L782.956055,274.679958 L711.650391,274.679958 C745.400391,324.74546 765.087891,385.027515 765.087891,449.904828 C765.087891,623.533634 624.014648,764.294075 450,764.294075 C364.754883,764.294075 287.419922,730.513674 230.704102,675.642446 L137.566406,675.642446 L137.566406,773.037341 C218.504883,850.955011 328.640625,898.898275 450,898.898275 C698.52832,898.898275 900,697.873318 900,449.896058 C900,348.397002 866.241211,254.764255 809.323242,179.565153 Z" id="Path" fill="url(#linearGradient-2)"></path>
                        <path d="M111.199219,649.324953 L111.199219,649.324953 L137.566406,649.324953 L206.411133,649.324953 C161.736328,595.058826 134.912109,525.603795 134.912109,449.896058 C134.912109,276.267251 275.985352,135.50681 450,135.50681 C547.154297,135.50681 634.042969,179.389761 691.839844,248.362465 L782.956055,248.362465 L782.956055,147.836832 C700.637695,57.5628316 581.950195,0.89384077 450,0.89384077 C201.47168,0.89384077 0,201.918798 0,449.896058 C0,563.058648 41.9589844,666.434393 111.199219,745.404412 L111.199219,649.324953 Z" id="Path" fill="url(#linearGradient-3)"></path>
                    </g>
                </g>
                <g id="Group" transform="translate(0.000000, 0.997783)"></g>
            </g>
        </g>
    </g>
</svg>