<?xml version="1.0" encoding="UTF-8"?>
<svg width="1026px" height="1026px" viewBox="0 0 1026 1026" version="1.1" xmlns="http://www.w3.org/2000/svg" xmlns:xlink="http://www.w3.org/1999/xlink">
    <title>Layer_2</title>
    <g id="Page-1" stroke="none" stroke-width="1" fill="none" fill-rule="evenodd">
        <g id="Layer_2" transform="translate(1.000000, 1.000000)" fill="#51A9ED" fill-rule="nonzero" stroke="#51A9ED">
            <g id="Group">
                <path d="M920.83,203.74 L920.83,282.2 L920.83,312.2 L890.83,312.2 L809.7,312.2 C848.1,369.29 870.5,438.03 870.5,512.01 C870.5,710 709.99,870.51 512,870.51 C415.01,870.51 327.02,831.99 262.49,769.42 L156.52,769.42 L156.52,880.48 C248.61,969.33 373.92,1024 512,1024 C794.77,1024 1024,794.77 1024,512 C1024,396.26 985.59,289.49 920.83,203.74 Z" id="Path"></path>
                <path d="M126.52,739.41 L126.52,739.41 L156.52,739.41 L234.85,739.41 C184.02,677.53 153.5,598.33 153.5,512 C153.5,314.01 314.01,153.5 512,153.5 C622.54,153.5 721.4,203.54 787.16,282.19 L890.83,282.19 L890.83,167.56 C797.17,64.62 662.13,0 512,0 C229.23,0 0,229.23 0,512 C0,641.04 47.74,758.92 126.52,848.97 L126.52,739.41 Z" id="Path"></path>
            </g>
        </g>
    </g>
</svg>